<svg xmlns="http://www.w3.org/2000/svg" width="400" height="300" viewBox="0 0 400 300">
  <rect width="400" height="300" fill="#f3f4f6"/>
  <circle cx="200" cy="120" r="40" fill="#d1d5db"/>
  <ellipse cx="185" cy="115" rx="8" ry="12" fill="#374151"/>
  <ellipse cx="215" cy="115" rx="8" ry="12" fill="#374151"/>
  <ellipse cx="200" cy="130" rx="6" ry="4" fill="#374151"/>
  <path d="M 180 140 Q 200 155 220 140" stroke="#374151" stroke-width="3" fill="none"/>
  <ellipse cx="160" cy="100" rx="15" ry="25" fill="#d1d5db"/>
  <ellipse cx="240" cy="100" rx="15" ry="25" fill="#d1d5db"/>
  <ellipse cx="200" cy="200" rx="60" ry="40" fill="#e5e7eb"/>
  <ellipse cx="170" cy="220" rx="20" ry="15" fill="#d1d5db"/>
  <ellipse cx="230" cy="220" rx="20" ry="15" fill="#d1d5db"/>
  <ellipse cx="150" cy="240" rx="15" ry="10" fill="#9ca3af"/>
  <ellipse cx="190" cy="245" rx="15" ry="10" fill="#9ca3af"/>
  <ellipse cx="210" cy="245" rx="15" ry="10" fill="#9ca3af"/>
  <ellipse cx="250" cy="240" rx="15" ry="10" fill="#9ca3af"/>
</svg>