<svg xmlns="http://www.w3.org/2000/svg" width="400" height="300" viewBox="0 0 400 300">
  <rect width="400" height="300" fill="#fef3c7"/>
  <circle cx="200" cy="120" r="45" fill="#f59e0b"/>
  <ellipse cx="180" cy="110" rx="10" ry="15" fill="#374151"/>
  <ellipse cx="220" cy="110" rx="10" ry="15" fill="#374151"/>
  <ellipse cx="200" cy="130" rx="8" ry="6" fill="#374151"/>
  <path d="M 175 140 Q 200 160 225 140" stroke="#374151" stroke-width="4" fill="none"/>
  <ellipse cx="150" cy="95" rx="18" ry="30" fill="#f59e0b"/>
  <ellipse cx="250" cy="95" rx="18" ry="30" fill="#f59e0b"/>
  <ellipse cx="200" cy="200" rx="70" ry="50" fill="#fbbf24"/>
  <ellipse cx="160" cy="230" rx="25" ry="20" fill="#f59e0b"/>
  <ellipse cx="240" cy="230" rx="25" ry="20" fill="#f59e0b"/>
  <ellipse cx="140" cy="250" rx="18" ry="12" fill="#d97706"/>
  <ellipse cx="180" cy="255" rx="18" ry="12" fill="#d97706"/>
  <ellipse cx="220" cy="255" rx="18" ry="12" fill="#d97706"/>
  <ellipse cx="260" cy="250" rx="18" ry="12" fill="#d97706"/>
  <path d="M 180 75 Q 200 60 220 75" stroke="#f59e0b" stroke-width="6" fill="none"/>
</svg>