<svg xmlns="http://www.w3.org/2000/svg" width="400" height="300" viewBox="0 0 400 300">
  <rect width="400" height="300" fill="#f0f9ff"/>
  <rect x="150" y="80" width="100" height="120" fill="#0ea5e9" rx="10"/>
  <rect x="160" y="90" width="80" height="20" fill="#ffffff" rx="5"/>
  <rect x="160" y="120" width="80" height="20" fill="#ffffff" rx="5"/>
  <rect x="160" y="150" width="80" height="20" fill="#ffffff" rx="5"/>
  <rect x="180" y="180" width="40" height="15" fill="#ffffff" rx="3"/>
  <circle cx="200" cy="50" r="25" fill="#0ea5e9"/>
  <path d="M 185 45 L 200 35 L 215 45 L 210 55 L 190 55 Z" fill="#ffffff"/>
  <rect x="120" y="220" width="160" height="40" fill="#06b6d4" rx="20"/>
  <text x="200" y="245" text-anchor="middle" fill="#ffffff" font-family="Arial, sans-serif" font-size="14" font-weight="bold">FUNDACIÓN</text>
  <circle cx="130" cy="130" r="8" fill="#22d3ee"/>
  <circle cx="270" cy="130" r="8" fill="#22d3ee"/>
  <circle cx="130" cy="160" r="6" fill="#67e8f9"/>
  <circle cx="270" cy="160" r="6" fill="#67e8f9"/>
</svg>